<svg width="16" height="16" viewBox="0 0 16 16" fill="none" xmlns="http://www.w3.org/2000/svg">
<path fill-rule="evenodd" clip-rule="evenodd" d="M12.6665 2.11458C12.5064 2.11458 12.3479 2.14611 12.2 2.20737C12.0522 2.26863 11.9178 2.35842 11.8046 2.47161L2.92978 11.3464L2.28333 13.7167L4.65364 13.0703L13.5284 4.19546C13.6416 4.08227 13.7314 3.9479 13.7927 3.80001C13.8539 3.65212 13.8855 3.49361 13.8855 3.33353C13.8855 3.17346 13.8539 3.01495 13.7927 2.86706C13.7314 2.71917 13.6416 2.5848 13.5284 2.47161C13.4153 2.35842 13.2809 2.26863 13.133 2.20737C12.9851 2.14611 12.8266 2.11458 12.6665 2.11458ZM11.6898 0.975531C11.9995 0.847267 12.3313 0.78125 12.6665 0.78125C13.0017 0.78125 13.3336 0.847267 13.6432 0.975531C13.9529 1.1038 14.2343 1.2918 14.4713 1.5288C14.7083 1.7658 14.8963 2.04716 15.0245 2.35682C15.1528 2.66648 15.2188 2.99837 15.2188 3.33353C15.2188 3.6687 15.1528 4.00059 15.0245 4.31025C14.8963 4.61991 14.7083 4.90127 14.4713 5.13827L5.47126 14.1383C5.38922 14.2203 5.28719 14.2795 5.17526 14.31L1.5086 15.31C1.27779 15.373 1.03095 15.3074 0.861782 15.1383C0.692615 14.9691 0.627062 14.7223 0.69001 14.4915L1.69001 10.8248C1.72054 10.7129 1.77974 10.6108 1.86178 10.5288L10.8618 1.5288C11.0988 1.2918 11.3801 1.1038 11.6898 0.975531Z" fill="#0D0E10"/>
</svg>
