<svg width="16" height="16" viewBox="0 0 16 16" fill="none" xmlns="http://www.w3.org/2000/svg">
<path fill-rule="evenodd" clip-rule="evenodd" d="M7.01881 1.52212C7.31833 1.35348 7.65627 1.26489 8 1.26489C8.34374 1.26489 8.68167 1.35348 8.9812 1.52212C9.28072 1.69076 9.53173 1.93374 9.71 2.22764L9.71192 2.2308L15.3586 11.6575L15.364 11.6667C15.5386 11.9691 15.631 12.312 15.632 12.6612C15.633 13.0104 15.5425 13.3538 15.3696 13.6572C15.1966 13.9606 14.9473 14.2134 14.6463 14.3905C14.3453 14.5676 14.0032 14.6628 13.654 14.6667L13.6467 14.6668L2.34601 14.6667C1.9968 14.6629 1.6547 14.5676 1.35372 14.3905C1.05273 14.2134 0.803369 13.9606 0.630434 13.6572C0.457498 13.3538 0.367019 13.0104 0.367996 12.6612C0.368974 12.312 0.461376 11.9691 0.636008 11.6667L0.641423 11.6575L6.28999 2.22763C6.46826 1.93374 6.71928 1.69076 7.01881 1.52212ZM8 2.59823C7.88542 2.59823 7.77278 2.62776 7.67294 2.68397C7.57354 2.73993 7.49018 2.82044 7.43081 2.91781L1.78846 12.3373C1.73167 12.4371 1.70165 12.55 1.70132 12.6649C1.701 12.7813 1.73116 12.8958 1.7888 12.9969C1.84645 13.0981 1.92957 13.1823 2.0299 13.2414C2.12935 13.2999 2.24226 13.3316 2.3576 13.3334H13.6424C13.7577 13.3316 13.8707 13.2999 13.9701 13.2414C14.0704 13.1823 14.1536 13.0981 14.2112 12.9969C14.2688 12.8958 14.299 12.7813 14.2987 12.6649C14.2984 12.55 14.2683 12.4372 14.2116 12.3373L8.57 2.91914C8.56973 2.9187 8.56946 2.91826 8.56919 2.91781C8.50982 2.82044 8.42646 2.73993 8.32707 2.68397C8.22722 2.62776 8.11458 2.59823 8 2.59823Z" fill="#EC4444"/>
<path fill-rule="evenodd" clip-rule="evenodd" d="M8 5.33337C8.36819 5.33337 8.66667 5.63185 8.66667 6.00004V8.66671C8.66667 9.0349 8.36819 9.33337 8 9.33337C7.63181 9.33337 7.33333 9.0349 7.33333 8.66671V6.00004C7.33333 5.63185 7.63181 5.33337 8 5.33337Z" fill="#EC4444"/>
<path fill-rule="evenodd" clip-rule="evenodd" d="M7.33333 11.3333C7.33333 10.9651 7.63181 10.6666 8 10.6666H8.00667C8.37486 10.6666 8.67333 10.9651 8.67333 11.3333C8.67333 11.7015 8.37486 12 8.00667 12H8C7.63181 12 7.33333 11.7015 7.33333 11.3333Z" fill="#EC4444"/>
</svg>
