<svg width="9" height="16" viewBox="0 0 9 16" fill="none" xmlns="http://www.w3.org/2000/svg">
<path d="M1.00003 8.00003C0.999573 7.76638 1.08095 7.53994 1.23003 7.36003L6.23003 1.36003C6.39977 1.15581 6.64368 1.02739 6.90811 1.00301C7.17253 0.978631 7.43581 1.06029 7.64003 1.23003C7.84425 1.39977 7.97267 1.64368 7.99705 1.90811C8.02143 2.17253 7.93977 2.43581 7.77003 2.64003L3.29003 8.00003L7.61003 13.36C7.6931 13.4623 7.75513 13.58 7.79256 13.7064C7.82999 13.8327 7.84208 13.9652 7.82814 14.0962C7.81421 14.2272 7.77451 14.3542 7.71134 14.4699C7.64816 14.5855 7.56276 14.6875 7.46003 14.77C7.35721 14.8616 7.23658 14.931 7.10571 14.9738C6.97483 15.0166 6.83653 15.0319 6.69947 15.0187C6.56241 15.0056 6.42953 14.9643 6.30918 14.8974C6.18882 14.8305 6.08357 14.7395 6.00003 14.63L1.17003 8.63003C1.04451 8.44495 0.984659 8.22313 1.00003 8.00003V8.00003Z" fill="#0D0E10"/>
</svg>
