<svg width="16" height="16" viewBox="0 0 16 16" fill="none" xmlns="http://www.w3.org/2000/svg">
<g clip-path="url(#clip0_13_151)">
<path fill-rule="evenodd" clip-rule="evenodd" d="M4.70014 2.03358C5.57531 1.15841 6.76229 0.666748 7.99997 0.666748C9.23765 0.666748 10.4246 1.15841 11.2998 2.03358C12.175 2.90875 12.6666 4.09574 12.6666 5.33342C12.6666 7.56852 13.1447 8.9565 13.5852 9.76418C13.8064 10.1697 14.0218 10.4357 14.1714 10.5937C14.2464 10.6728 14.3053 10.7253 14.3408 10.7549C14.3586 10.7697 14.3705 10.7787 14.3756 10.7825C14.3764 10.7831 14.377 10.7836 14.3775 10.784C14.6165 10.9481 14.7223 11.2484 14.638 11.5266C14.5529 11.8078 14.2937 12.0001 14 12.0001H1.99997C1.70619 12.0001 1.44704 11.8078 1.36191 11.5266C1.27768 11.2484 1.38344 10.9481 1.62243 10.784C1.6229 10.7836 1.62353 10.7831 1.62434 10.7825C1.62947 10.7787 1.64137 10.7697 1.65912 10.7549C1.6946 10.7253 1.75352 10.6728 1.8285 10.5937C1.97812 10.4357 2.19351 10.1697 2.41471 9.76418C2.85526 8.9565 3.3333 7.56852 3.3333 5.33342C3.3333 4.09574 3.82497 2.90875 4.70014 2.03358ZM1.62917 10.7794C1.62922 10.7793 1.62927 10.7793 1.62933 10.7793C1.62932 10.7793 1.62932 10.7793 1.62932 10.7793L1.62917 10.7794ZM3.43285 10.6667H12.5671C12.5164 10.5836 12.4654 10.4957 12.4147 10.4027C11.8553 9.377 11.3333 7.76498 11.3333 5.33342C11.3333 4.44936 10.9821 3.60151 10.357 2.97639C9.73187 2.35127 8.88403 2.00008 7.99997 2.00008C7.11592 2.00008 6.26807 2.35127 5.64295 2.97639C5.01783 3.60151 4.66664 4.44936 4.66664 5.33342C4.66664 7.76498 4.14468 9.377 3.58523 10.4027C3.5345 10.4957 3.48358 10.5836 3.43285 10.6667Z" fill="black"/>
<path fill-rule="evenodd" clip-rule="evenodd" d="M6.51219 13.4235C6.83068 13.2387 7.23863 13.3472 7.42338 13.6656C7.48198 13.7667 7.56609 13.8505 7.6673 13.9088C7.7685 13.9671 7.88325 13.9978 8.00004 13.9978C8.11684 13.9978 8.23158 13.9671 8.33278 13.9088C8.43399 13.8505 8.5181 13.7667 8.57671 13.6656C8.76146 13.3472 9.1694 13.2387 9.48789 13.4235C9.80637 13.6082 9.91479 14.0162 9.73004 14.3347C9.55423 14.6377 9.30188 14.8893 8.99827 15.0642C8.69465 15.2391 8.35042 15.3311 8.00004 15.3311C7.64966 15.3311 7.30543 15.2391 7.00182 15.0642C6.6982 14.8893 6.44585 14.6377 6.27004 14.3347C6.08529 14.0162 6.19371 13.6082 6.51219 13.4235Z" fill="black"/>
</g>
<defs>
<clipPath id="clip0_13_151">
<rect width="16" height="16" fill="white"/>
</clipPath>
</defs>
</svg>
