<svg width="128" height="20" viewBox="0 0 128 20" fill="none" xmlns="http://www.w3.org/2000/svg">
<path d="M3.13046 10.9238C3.08488 11.5814 3.15975 12.0729 3.35506 12.3984C3.71965 12.9909 4.49439 13.2871 5.67928 13.2871C6.38892 13.2871 6.98137 13.209 7.45663 13.0527C8.36158 12.7533 8.89868 12.1966 9.06796 11.3828C9.17212 10.9076 9.04191 10.5397 8.67733 10.2793C8.31926 10.0254 7.71379 9.80078 6.86092 9.60547L5.40585 9.26367C3.98006 8.92513 3.02303 8.55729 2.53475 8.16016C1.70793 7.49609 1.44426 6.45768 1.74374 5.04492C2.01717 3.75586 2.71379 2.6849 3.83358 1.83203C4.95337 0.979167 6.42147 0.552734 8.23788 0.552734C9.7548 0.552734 10.9625 0.95638 11.8609 1.76367C12.7594 2.56445 13.0719 3.72982 12.7984 5.25977H9.9078C10.0445 4.39388 9.80038 3.77865 9.17538 3.41406C8.75871 3.17318 8.20207 3.05273 7.50546 3.05273C6.73072 3.05273 6.07642 3.20898 5.54256 3.52148C5.01522 3.83398 4.69296 4.27018 4.57577 4.83008C4.46509 5.3444 4.61157 5.72852 5.01522 5.98242C5.26913 6.15169 5.85181 6.35026 6.76327 6.57812L9.11678 7.17383C10.1454 7.43424 10.8909 7.78255 11.3531 8.21875C12.0693 8.89583 12.2906 9.87565 12.0172 11.1582C11.7372 12.4733 11.0015 13.5671 9.81014 14.4395C8.61874 15.3053 7.10506 15.7383 5.26913 15.7383C3.39413 15.7383 2.01066 15.3118 1.11874 14.459C0.226809 13.5996 -0.0596491 12.4212 0.259361 10.9238H3.13046Z" fill="white"/>
<path d="M16.148 1.02148H18.8824L17.232 8.77539L21.5484 4.77148H24.9957L20.4058 8.84375L22.8961 15.3672H19.5367L17.9547 10.8164L16.5387 12.0176L15.8355 15.3672H13.1012L16.148 1.02148Z" fill="white"/>
<path d="M29.6539 3.45312H26.8316L27.3785 0.884766H30.2008L29.6539 3.45312ZM26.5582 4.72266H29.3805L27.1246 15.3672H24.3023L26.5582 4.72266Z" fill="white"/>
<path d="M32.6715 15.3672H29.8883L32.9449 0.972656H35.7281L32.6715 15.3672Z" fill="white"/>
<path d="M38.2379 15.3672H35.4547L38.5113 0.972656H41.2945L38.2379 15.3672Z" fill="white"/>
<path d="M41.8437 11.0672C41.897 11.7072 42.037 12.2539 42.2637 12.7072C42.5037 13.1472 42.8037 13.5072 43.1637 13.7872C43.537 14.0672 43.9637 14.2739 44.4437 14.4072C44.9237 14.5272 45.437 14.5872 45.9837 14.5872C46.6237 14.5872 47.177 14.5072 47.6437 14.3472C48.1103 14.1872 48.4903 13.9739 48.7837 13.7072C49.077 13.4272 49.2903 13.1072 49.4237 12.7472C49.5703 12.3872 49.6437 12.0072 49.6437 11.6072C49.6437 11.0472 49.517 10.5939 49.2637 10.2472C49.0103 9.90052 48.677 9.62052 48.2637 9.40719C47.8637 9.18052 47.397 9.00052 46.8637 8.86719C46.3437 8.73385 45.8037 8.60719 45.2437 8.48719C44.697 8.35385 44.157 8.20052 43.6237 8.02719C43.1037 7.85385 42.637 7.62052 42.2237 7.32719C41.8237 7.03385 41.497 6.66052 41.2437 6.20719C40.9903 5.74052 40.8637 5.15385 40.8637 4.44719C40.8637 3.95385 40.9637 3.47385 41.1637 3.00719C41.377 2.54052 41.6837 2.12719 42.0837 1.76719C42.497 1.40719 43.0103 1.12052 43.6237 0.907187C44.237 0.693854 44.9437 0.587187 45.7437 0.587187C46.557 0.587187 47.2637 0.70052 47.8637 0.927186C48.477 1.15385 48.9837 1.46719 49.3837 1.86719C49.7837 2.25385 50.0837 2.70719 50.2837 3.22719C50.4837 3.74719 50.5837 4.30052 50.5837 4.88719H49.2837C49.2837 4.34052 49.1837 3.86719 48.9837 3.46719C48.797 3.06719 48.537 2.74052 48.2037 2.48719C47.8703 2.23385 47.4903 2.04719 47.0637 1.92719C46.637 1.80719 46.197 1.74719 45.7437 1.74719C45.0503 1.74719 44.4637 1.84719 43.9837 2.04719C43.517 2.23385 43.1437 2.48052 42.8637 2.78719C42.5837 3.09385 42.3903 3.43385 42.2837 3.80719C42.177 4.18052 42.157 4.55385 42.2237 4.92719C42.3037 5.39385 42.4903 5.76719 42.7837 6.04719C43.077 6.32719 43.437 6.56052 43.8637 6.74719C44.2903 6.92052 44.757 7.06719 45.2637 7.18719C45.7837 7.29385 46.3103 7.41385 46.8437 7.54719C47.377 7.66719 47.8903 7.81385 48.3837 7.98719C48.8903 8.16052 49.337 8.39385 49.7237 8.68719C50.1103 8.98052 50.417 9.36052 50.6437 9.82719C50.8837 10.2805 51.0037 10.8539 51.0037 11.5472C51.0037 12.8805 50.5437 13.9139 49.6237 14.6472C48.7037 15.3805 47.4103 15.7472 45.7437 15.7472C44.997 15.7472 44.3037 15.6472 43.6637 15.4472C43.0237 15.2605 42.4703 14.9739 42.0037 14.5872C41.537 14.1872 41.1703 13.7005 40.9037 13.1272C40.6503 12.5405 40.5237 11.8539 40.5237 11.0672H41.8437Z" fill="white"/>
<path d="M62.0902 13.7672L64.8102 5.00719H66.0302L62.6702 15.3672H61.3902L59.1302 6.66719H59.0902L56.7902 15.3672H55.3502L52.1902 5.00719H53.3902L56.0702 13.8472L58.4702 5.00719H59.8102L62.0902 13.7672Z" fill="white"/>
<path d="M74.5438 9.92719C74.0371 10.1405 73.5238 10.2805 73.0038 10.3472C72.4838 10.4139 71.9638 10.4672 71.4438 10.5072C70.5238 10.5739 69.8038 10.7805 69.2838 11.1272C68.7771 11.4739 68.5238 12.0005 68.5238 12.7072C68.5238 13.0272 68.5838 13.3072 68.7038 13.5472C68.8371 13.7739 69.0038 13.9672 69.2038 14.1272C69.4171 14.2739 69.6571 14.3872 69.9238 14.4672C70.2038 14.5339 70.4838 14.5672 70.7638 14.5672C71.2438 14.5672 71.7105 14.5072 72.1638 14.3872C72.6171 14.2672 73.0172 14.0872 73.3638 13.8472C73.7238 13.5939 74.0105 13.2805 74.2238 12.9072C74.4371 12.5205 74.5438 12.0672 74.5438 11.5472V9.92719ZM72.5238 9.32719C72.7505 9.30052 73.0172 9.26052 73.3238 9.20719C73.6438 9.15385 73.9038 9.08052 74.1038 8.98719C74.3038 8.89385 74.4238 8.74052 74.4638 8.52719C74.5172 8.30052 74.5438 8.09385 74.5438 7.90719C74.5438 7.29385 74.3438 6.79385 73.9438 6.40719C73.5572 6.00719 72.8971 5.80719 71.9638 5.80719C71.5505 5.80719 71.1705 5.84719 70.8238 5.92719C70.4771 5.99385 70.1705 6.12052 69.9038 6.30719C69.6505 6.48052 69.4371 6.72052 69.2638 7.02719C69.1038 7.32052 68.9971 7.69385 68.9438 8.14719H67.7238C67.7638 7.53385 67.9038 7.01385 68.1438 6.58719C68.3838 6.14719 68.6905 5.79385 69.0638 5.52719C69.4505 5.24719 69.8905 5.04719 70.3838 4.92719C70.8905 4.79385 71.4238 4.72719 71.9838 4.72719C72.5038 4.72719 72.9905 4.78719 73.4438 4.90719C73.9105 5.01385 74.3105 5.19385 74.6438 5.44719C74.9905 5.68719 75.2571 6.01385 75.4438 6.42719C75.6438 6.84052 75.7438 7.34719 75.7438 7.94719V13.5872C75.7438 14.0539 75.8238 14.3539 75.9838 14.4872C76.1572 14.6072 76.4971 14.5739 77.0038 14.3872V15.3272C76.9105 15.3539 76.7705 15.3939 76.5838 15.4472C76.4105 15.5005 76.2371 15.5272 76.0638 15.5272C75.8771 15.5272 75.6971 15.5072 75.5238 15.4672C75.3238 15.4405 75.1638 15.3805 75.0438 15.2872C74.9238 15.1805 74.8238 15.0605 74.7438 14.9272C74.6771 14.7805 74.6305 14.6272 74.6038 14.4672C74.5771 14.2939 74.5638 14.1139 74.5638 13.9272C74.0571 14.4872 73.4771 14.9139 72.8238 15.2072C72.1705 15.5005 71.4638 15.6472 70.7038 15.6472C70.2505 15.6472 69.8105 15.5872 69.3838 15.4672C68.9705 15.3472 68.6038 15.1605 68.2838 14.9072C67.9638 14.6539 67.7105 14.3472 67.5238 13.9872C67.3371 13.6139 67.2438 13.1739 67.2438 12.6672C67.2438 10.9072 68.4505 9.86719 70.8638 9.54719L72.5238 9.32719Z" fill="white"/>
<path d="M80.2171 10.2272C80.2171 10.8139 80.2971 11.3739 80.4571 11.9072C80.6171 12.4272 80.8438 12.8872 81.1371 13.2872C81.4438 13.6739 81.8104 13.9872 82.2371 14.2272C82.6771 14.4539 83.1704 14.5672 83.7171 14.5672C84.3304 14.5672 84.8638 14.4472 85.3171 14.2072C85.7838 13.9539 86.1638 13.6139 86.4571 13.1872C86.7504 12.7605 86.9638 12.2672 87.0971 11.7072C87.2304 11.1339 87.2838 10.5205 87.2571 9.86719C87.2571 9.21385 87.1638 8.64052 86.9771 8.14719C86.8038 7.64052 86.5571 7.21385 86.2371 6.86719C85.9171 6.52052 85.5438 6.26052 85.1171 6.08719C84.6904 5.90052 84.2238 5.80719 83.7171 5.80719C83.1571 5.80719 82.6571 5.92052 82.2171 6.14719C81.7771 6.37385 81.4104 6.68719 81.1171 7.08719C80.8238 7.47385 80.5971 7.94052 80.4371 8.48719C80.2904 9.02052 80.2171 9.60052 80.2171 10.2272ZM80.2171 19.4472H79.0171V5.00719H80.2171V6.82719H80.2571C80.4304 6.49385 80.6504 6.19385 80.9171 5.92719C81.1971 5.66052 81.4971 5.44052 81.8171 5.26719C82.1504 5.09385 82.4904 4.96052 82.8371 4.86719C83.1838 4.77385 83.5238 4.72719 83.8571 4.72719C84.6971 4.72719 85.4104 4.86719 85.9971 5.14719C86.5838 5.42719 87.0638 5.81385 87.4371 6.30719C87.8238 6.78719 88.1038 7.36052 88.2771 8.02719C88.4504 8.69385 88.5371 9.40719 88.5371 10.1672C88.5371 10.8872 88.4438 11.5805 88.2571 12.2472C88.0704 12.9139 87.7838 13.5005 87.3971 14.0072C87.0238 14.5005 86.5438 14.9005 85.9571 15.2072C85.3838 15.5005 84.7038 15.6472 83.9171 15.6472C83.1838 15.6472 82.4771 15.4872 81.7971 15.1672C81.1304 14.8339 80.6038 14.3472 80.2171 13.7072V19.4472Z" fill="white"/>
<path d="M91.1676 15.3672V0.972656H94.1461V6.46094H99.7711V0.972656H102.759V15.3672H99.7711V8.94141H94.1461V15.3672H91.1676Z" fill="white"/>
<path d="M108.189 4.72266V11.1387C108.189 11.7441 108.261 12.1999 108.404 12.5059C108.658 13.0462 109.156 13.3164 109.898 13.3164C110.849 13.3164 111.5 12.9323 111.851 12.1641C112.033 11.7474 112.125 11.1973 112.125 10.5137V4.72266H114.947V15.3672H112.242V13.8633C112.216 13.8958 112.151 13.9935 112.046 14.1562C111.942 14.319 111.819 14.4622 111.675 14.5859C111.239 14.9766 110.816 15.2435 110.406 15.3867C110.002 15.5299 109.527 15.6016 108.98 15.6016C107.405 15.6016 106.343 15.0352 105.796 13.9023C105.49 13.2773 105.337 12.3561 105.337 11.1387V4.72266H108.189Z" fill="white"/>
<path d="M123.394 4.48828C124.794 4.48828 125.888 4.99284 126.675 6.00195C127.47 7.01107 127.867 8.31315 127.867 9.9082C127.867 11.5618 127.476 12.9323 126.695 14.0195C125.914 15.1068 124.823 15.6504 123.423 15.6504C122.545 15.6504 121.838 15.4746 121.304 15.123C120.985 14.9147 120.64 14.5501 120.269 14.0293V15.3672H117.545V0.992188H120.318V6.10938C120.67 5.61458 121.057 5.23698 121.48 4.97656C121.981 4.65104 122.619 4.48828 123.394 4.48828ZM122.681 13.3555C123.397 13.3555 123.954 13.0658 124.351 12.4863C124.748 11.9069 124.947 11.1452 124.947 10.2012C124.947 9.44596 124.849 8.82096 124.654 8.32617C124.283 7.38867 123.599 6.91992 122.603 6.91992C121.594 6.91992 120.901 7.37891 120.523 8.29688C120.328 8.78516 120.23 9.41667 120.23 10.1914C120.23 11.1029 120.432 11.8581 120.836 12.457C121.239 13.056 121.854 13.3555 122.681 13.3555Z" fill="white"/>
</svg>
