<svg width="16" height="16" viewBox="0 0 16 16" fill="none" xmlns="http://www.w3.org/2000/svg">
<path fill-rule="evenodd" clip-rule="evenodd" d="M2.97631 10.3098C3.60143 9.68469 4.44928 9.3335 5.33333 9.3335H10.6667C11.5507 9.3335 12.3986 9.68469 13.0237 10.3098C13.6488 10.9349 14 11.7828 14 12.6668V14.0002C14 14.3684 13.7015 14.6668 13.3333 14.6668C12.9651 14.6668 12.6667 14.3684 12.6667 14.0002V12.6668C12.6667 12.1364 12.456 11.6277 12.0809 11.2526C11.7058 10.8775 11.1971 10.6668 10.6667 10.6668H5.33333C4.8029 10.6668 4.29419 10.8775 3.91912 11.2526C3.54405 11.6277 3.33333 12.1364 3.33333 12.6668V14.0002C3.33333 14.3684 3.03486 14.6668 2.66667 14.6668C2.29848 14.6668 2 14.3684 2 14.0002V12.6668C2 11.7828 2.35119 10.9349 2.97631 10.3098Z" fill="black"/>
<path fill-rule="evenodd" clip-rule="evenodd" d="M7.99996 2.66683C6.89539 2.66683 5.99996 3.56226 5.99996 4.66683C5.99996 5.7714 6.89539 6.66683 7.99996 6.66683C9.10453 6.66683 9.99996 5.7714 9.99996 4.66683C9.99996 3.56226 9.10453 2.66683 7.99996 2.66683ZM4.66663 4.66683C4.66663 2.82588 6.15901 1.3335 7.99996 1.3335C9.84091 1.3335 11.3333 2.82588 11.3333 4.66683C11.3333 6.50778 9.84091 8.00016 7.99996 8.00016C6.15901 8.00016 4.66663 6.50778 4.66663 4.66683Z" fill="black"/>
</svg>
